<svg width="48" height="48" fill="none" xmlns="http://www.w3.org/2000/svg">
  <g clip-path="url(#a)">
    <path d="M24 48c13.255 0 24-10.745 24-24S37.255 0 24 0 0 10.745 0 24s10.745 24 24 24Z" fill="#fff"/>
    <path fill-rule="evenodd" clip-rule="evenodd" d="M23.998 0C10.746 0 0 10.787 0 24.095a24.09 24.09 0 0 0 16.414 22.863c1.2.22 1.578-.494 1.578-1.133 0-.572.012-2.172 0-4.183-6.675 1.457-8.058-3.173-8.058-3.173-1.09-2.784-2.663-3.525-2.663-3.525-2.179-1.494.163-1.465.163-1.465 2.408.17 3.678 2.483 3.678 2.483 2.14 3.68 5.616 2.617 6.982 2.002.22-1.557.84-2.62 1.526-3.222-5.329-.608-10.931-2.675-10.931-11.908 0-2.631.934-4.78 2.47-6.465-.248-.608-1.074-3.059.235-6.377 0 0 2.015-.647 6.598 2.472 1.915-.535 3.969-.801 6.01-.81 2.039.009 4.091.275 6.009.81 4.583-3.118 6.595-2.472 6.595-2.472 1.308 3.318.485 5.769.239 6.377 1.535 1.684 2.466 3.834 2.466 6.465 0 9.257-5.611 11.294-10.958 11.889.86.745 1.642 2.191 1.642 4.438v6.67c0 .645.388 1.357 1.606 1.124A24.092 24.092 0 0 0 48 24.095C48 10.788 37.254 0 23.998 0Z" fill="#000"/>
  </g>
  <defs>
    <clipPath id="a">
      <path fill="#fff" d="M0 0h48v48H0z"/>
    </clipPath>
  </defs>
</svg>