<svg width="48" height="48" fill="none" xmlns="http://www.w3.org/2000/svg">
  <g clip-path="url(#a)" fill="#000">
    <path d="M21.877.066c-1.12.103-3.372.591-4.672 1.016A22.248 22.248 0 0 0 3.165 14.8c-1.53 4.346-1.62 9.85-.205 13.99.18.526.321.964.321.964 0 .013-.257.051-.579.09-1.068.154-1.93.771-2.457 1.761-.232.425-.245.862-.245 7.33 0 6.801 0 6.878.283 7.392a3.46 3.46 0 0 0 1.454 1.428C2.175 47.987 2.96 48 24 48c21.04 0 21.825-.013 22.263-.244a3.46 3.46 0 0 0 1.454-1.428c.283-.514.283-.591.283-7.393s0-6.879-.283-7.393a3.175 3.175 0 0 0-2.265-1.672c-.257-.051-.476-.128-.476-.18 0-.038.154-.54.322-1.105 1.042-3.356 1.235-7.394.502-10.968-.103-.54-.425-1.685-.708-2.52C42.08 6.019 33.51-.114 24 .002c-.888.012-1.84.038-2.123.064Zm1.35 6.673v4.847l-1.762-.09c-2.921-.14-5.804-.372-5.971-.475-.193-.116.013-.695.862-2.52 1.441-3.125 3.487-5.388 5.662-6.275 1.326-.553 1.21-1.003 1.21 4.513Zm3.411-4.32c1.686.836 3.294 2.533 4.568 4.834.888 1.595 1.712 3.69 1.506 3.793-.18.103-3.101.322-5.842.45l-1.84.09v-9.72l.424.09c.219.039.76.244 1.184.463Zm-9.304 1.183c-1.441 1.761-2.69 3.986-3.462 6.159-.321.9-.399 1.016-.682 1.016-.334 0-3.384-.515-4.594-.772-.643-.141-.669-.167-.527-.424.296-.579 3.294-3.395 4.414-4.153 1.35-.913 3.127-1.852 4.542-2.366.54-.206 1.004-.373 1.03-.386.025 0-.296.424-.721.926Zm13.975-.489c3.166 1.222 6.061 3.228 8.133 5.645l.901 1.054-.618.154c-1.042.27-4.413.823-4.748.785-.27-.039-.386-.219-.81-1.376-.85-2.25-2.15-4.475-3.488-5.966-.36-.399-.618-.733-.566-.733.038 0 .579.193 1.196.437ZM10.9 12.268c1.082.18 1.983.347 1.995.36.026.013-.103.694-.27 1.504-.335 1.57-.656 3.935-.785 5.864l-.09 1.195H3.796v-.552c0-1.273.566-3.87 1.249-5.684.334-.9 1.196-2.7 1.544-3.227l.18-.283 1.068.244c.592.129 1.969.386 3.063.579Zm31.156.283a20.464 20.464 0 0 1 2.226 6.969c.09.746.18 1.427.18 1.504 0 .129-.9.167-4.053.167h-4.054v-.874c0-1.273-.348-4.089-.76-6.043-.192-.926-.308-1.697-.244-1.697.245 0 4.62-.785 5.25-.952.387-.103.747-.18.785-.193.04-.013.335.502.67 1.119Zm-24.49.54c.811.064 2.42.154 3.578.206l2.085.09v7.804h-9.652v-.295c.013-1.505.476-5.066.914-6.957l.27-1.131.67.077c.36.039 1.325.129 2.136.206Zm16.164 1.054c.399 1.749.695 3.909.785 5.593l.077 1.453h-9.562v-7.843h.464c.862 0 5.43-.27 6.318-.386 1.686-.192 1.609-.244 1.918 1.183ZM11.89 25.01c.141 1.774.373 3.562.592 4.513l.064.283-3.693-.026-3.694-.038-.411-1.286c-.528-1.62-.824-3.047-.914-4.41l-.077-1.055h7.978l.155 2.02ZM23.228 26.4v3.407h-8.854l-.064-.296c-.167-.643-.592-3.973-.67-5.207l-.09-1.312h9.678V26.4Zm11.324-2.546c0 .939-.309 3.69-.553 5.053l-.155.836-4.413.038-4.402.026v-6.815h9.523v.862Zm9.845.064c-.129 1.363-.515 3.227-.978 4.642l-.4 1.247h-7.347l.09-.553c.334-2.057.463-3.124.527-4.436.052-.835.103-1.581.13-1.671.038-.116.964-.155 4.066-.155h4.002l-.09.926Zm1.428 8.126.438.438V45.39l-.438.437-.437.437H2.612l-.437-.437-.438-.437V32.48l.438-.437.437-.437h42.776l.437.437Z"/>
    <path d="M6.26 35.22a1.8 1.8 0 0 0-.257.428c-.098.293 2.286 7.077 2.567 7.273.269.208.782.208 1.051 0 .11-.074.538-1.112.954-2.286.415-1.173.758-2.151.782-2.176.012-.012.379.966.795 2.176.5 1.442.843 2.25.99 2.323.39.22.94.146 1.136-.16.33-.488 2.53-6.955 2.457-7.187-.195-.587-1.05-.82-1.43-.391-.098.122-.5 1.137-.892 2.273-.403 1.125-.758 2.005-.807 1.956-.049-.06-.403-.978-.782-2.053-.367-1.064-.77-2.042-.88-2.164-.245-.269-.856-.293-1.137-.037-.11.098-.526 1.113-.93 2.262-.39 1.137-.745 2.078-.781 2.078-.037 0-.392-.917-.783-2.054-.733-2.127-.953-2.469-1.54-2.469-.183 0-.416.098-.513.208Zm12.15-.012a.634.634 0 0 0-.269.537c0 .514 2.286 6.992 2.53 7.176.282.22.954.195 1.15-.037.085-.098.489-1.149.904-2.335l.758-2.151.318.904c.183.502.526 1.455.758 2.127.244.66.525 1.308.636 1.43.256.282.916.282 1.16 0 .11-.11.734-1.735 1.382-3.618.99-2.799 1.174-3.459 1.088-3.716-.147-.403-.66-.61-1.112-.44-.367.123-.453.306-1.418 3.093l-.538 1.516-.697-2.005c-.758-2.127-.892-2.445-1.1-2.58-.245-.17-.893-.097-1.076.11-.098.123-.501 1.138-.892 2.274-.404 1.125-.758 2.005-.807 1.956-.049-.06-.403-.978-.782-2.053-.367-1.064-.77-2.042-.88-2.164-.245-.269-.746-.281-1.113-.024Zm12.077.048c-.134.135-.244.367-.244.526 0 .403 2.286 6.809 2.518 7.078.269.28.93.293 1.174 0 .11-.11.513-1.125.904-2.262.391-1.124.746-2.041.782-2.041.037 0 .392.941.783 2.078.403 1.149.819 2.164.929 2.261.281.245.892.233 1.137-.036.22-.245 2.53-6.711 2.53-7.078 0-.403-.355-.77-.746-.77-.684 0-.782.134-1.576 2.457-.55 1.565-.807 2.151-.856 1.992-.05-.122-.404-1.112-.783-2.188-.379-1.075-.782-2.029-.892-2.114-.293-.22-.856-.184-1.1.073-.122.122-.55 1.161-.953 2.31-.404 1.162-.746 2.09-.758 2.066-.025-.012-.355-.953-.758-2.066-.391-1.124-.807-2.151-.93-2.286-.28-.317-.843-.317-1.16 0Z"/>
  </g>
  <defs>
    <clipPath id="a">
      <path fill="#fff" d="M0 0h48v48H0z"/>
    </clipPath>
  </defs>
</svg>