<svg width="288" height="313" viewBox="0 0 288 313" fill="none" xmlns="http://www.w3.org/2000/svg">
<g clip-path="url(#clip0_205_17)">
<path d="M287.5 0.499977L0.5 0.499939" stroke="#E2E3E6" stroke-linecap="round"/>
<path d="M287.5 104.5H63.5" stroke="#E2E3E6" stroke-linecap="round"/>
<path d="M287.5 208.5H126.5" stroke="#E2E3E6" stroke-linecap="round"/>
<path d="M287.5 312.5H189.5" stroke="#E2E3E6" stroke-linecap="round"/>
<mask id="mask0_205_17" style="mask-type:luminance" maskUnits="userSpaceOnUse" x="60" y="69" width="148" height="72">
<path d="M96 69L172 69C191.882 69 208 85.1177 208 105C208 124.882 191.882 141 172 141L96 141C76.1177 141 60 124.882 60 105C60 85.1177 76.1178 69 96 69Z" fill="white"/>
</mask>
<g mask="url(#mask0_205_17)">
<path d="M96 69L172 69C191.882 69 208 85.1177 208 105C208 124.882 191.882 141 172 141L96 141C76.1177 141 60 124.882 60 105C60 85.1177 76.1178 69 96 69Z" fill="white"/>
<path d="M207.933 124.406V85.4572C207.935 88.015 207.446 90.548 206.495 92.9115C205.544 95.2749 204.15 97.4223 202.391 99.231C200.633 101.04 198.545 102.474 196.247 103.452C193.949 104.43 191.487 104.933 189 104.931C191.487 104.93 193.949 105.433 196.247 106.411C198.545 107.389 200.633 108.823 202.391 110.632C204.15 112.441 205.544 114.588 206.495 116.951C207.446 119.315 207.935 121.848 207.933 124.406Z" fill="#E9EAEC"/>
<path d="M60.0667 85.4571V124.406C60.0652 121.848 60.5539 119.315 61.5048 116.951C62.4558 114.588 63.8504 112.441 65.6088 110.632C67.3672 108.823 69.455 107.389 71.7528 106.411C74.0505 105.433 76.5132 104.93 79 104.931C76.5132 104.933 74.0505 104.43 71.7528 103.452C69.455 102.474 67.3672 101.04 65.6088 99.231C63.8504 97.4223 62.4558 95.2749 61.5048 92.9114C60.5539 90.548 60.0652 88.015 60.0667 85.4571Z" fill="#E9EAEC"/>
<path d="M109.992 103.719L119.555 112.391L114.891 117.594L100.43 104L114.562 89.3047L119.602 94.0625L109.992 103.719ZM130.219 122H123.305L137.227 88.3906H144.141L130.219 122ZM147.844 94.0625L152.883 89.3047L167.016 104L152.555 117.594L147.891 112.391L157.453 103.719L147.844 94.0625Z" fill="#D6D6D6"/>
</g>
<path d="M96 69L172 69C191.882 69 208 85.1177 208 105C208 124.882 191.882 141 172 141L96 141C76.1177 141 60 124.882 60 105C60 85.1177 76.1178 69 96 69Z" stroke="#E9EAEC"/>
</g>
<defs>
<clipPath id="clip0_205_17">
<rect width="288" height="313" fill="white"/>
</clipPath>
</defs>
</svg>
