<svg width="288" height="313" viewBox="0 0 288 313" fill="none" xmlns="http://www.w3.org/2000/svg">
<g clip-path="url(#clip0_205_2)">
<path d="M0.5 0.500061L287.5 0.500023" stroke="#E2E3E6" stroke-linecap="round"/>
<path d="M0.5 104.5L224.5 104.5" stroke="#E2E3E6" stroke-linecap="round"/>
<path d="M0.5 208.5L161.5 208.5" stroke="#E2E3E6" stroke-linecap="round"/>
<path d="M0.5 312.5L98.5 312.5" stroke="#E2E3E6" stroke-linecap="round"/>
<mask id="mask0_205_2" style="mask-type:luminance" maskUnits="userSpaceOnUse" x="80" y="69" width="148" height="72">
<path d="M116 69L192 69C211.882 69 228 85.1177 228 105C228 124.882 211.882 141 192 141L116 141C96.1177 141 80 124.882 80 105C80 85.1177 96.1178 69 116 69Z" fill="white"/>
</mask>
<g mask="url(#mask0_205_2)">
<path d="M116 69L192 69C211.882 69 228 85.1177 228 105C228 124.882 211.882 141 192 141L116 141C96.1177 141 80 124.882 80 105C80 85.1177 96.1178 69 116 69Z" fill="white"/>
<path d="M227.933 124.406V85.4572C227.935 88.015 227.446 90.548 226.495 92.9115C225.544 95.2749 224.15 97.4223 222.391 99.231C220.633 101.04 218.545 102.474 216.247 103.452C213.949 104.43 211.487 104.933 209 104.931C211.487 104.93 213.949 105.433 216.247 106.411C218.545 107.389 220.633 108.823 222.391 110.632C224.15 112.441 225.544 114.588 226.495 116.951C227.446 119.315 227.935 121.848 227.933 124.406Z" fill="#E9EAEC"/>
<path d="M80.0667 85.4571V124.406C80.0652 121.848 80.5539 119.315 81.5048 116.951C82.4558 114.588 83.8504 112.441 85.6088 110.632C87.3672 108.823 89.455 107.389 91.7528 106.411C94.0505 105.433 96.5132 104.93 99 104.931C96.5132 104.933 94.0505 104.43 91.7528 103.452C89.455 102.474 87.3672 101.04 85.6088 99.231C83.8504 97.4223 82.4558 95.2749 81.5048 92.9114C80.5539 90.548 80.0652 88.015 80.0667 85.4571Z" fill="#E9EAEC"/>
</g>
<path d="M116 69L192 69C211.882 69 228 85.1177 228 105C228 124.882 211.882 141 192 141L116 141C96.1177 141 80 124.882 80 105C80 85.1177 96.1178 69 116 69Z" stroke="#E9EAEC"/>
<path d="M143.352 110.793C143.352 111.836 143.152 112.82 142.754 113.746C142.367 114.66 141.828 115.463 141.137 116.154C140.457 116.834 139.654 117.373 138.729 117.771C137.814 118.158 136.836 118.352 135.793 118.352C134.855 118.352 133.953 118.188 133.086 117.859C132.23 117.531 131.457 117.051 130.766 116.418C130.074 117.051 129.295 117.531 128.428 117.859C127.561 118.188 126.658 118.352 125.721 118.352C124.678 118.352 123.693 118.158 122.768 117.771C121.854 117.373 121.051 116.834 120.359 116.154C119.68 115.463 119.141 114.66 118.742 113.746C118.355 112.82 118.162 111.836 118.162 110.793V92.793H123.207V110.793C123.207 111.145 123.271 111.479 123.4 111.795C123.529 112.1 123.705 112.369 123.928 112.604C124.162 112.826 124.432 113.002 124.736 113.131C125.041 113.26 125.369 113.324 125.721 113.324C126.072 113.324 126.4 113.26 126.705 113.131C127.01 113.002 127.273 112.826 127.496 112.604C127.73 112.369 127.912 112.1 128.041 111.795C128.17 111.479 128.234 111.145 128.234 110.793V92.793H133.279V110.793C133.279 111.145 133.344 111.479 133.473 111.795C133.602 112.1 133.777 112.369 134 112.604C134.234 112.826 134.504 113.002 134.809 113.131C135.113 113.26 135.441 113.324 135.793 113.324C136.145 113.324 136.473 113.26 136.777 113.131C137.082 113.002 137.346 112.826 137.568 112.604C137.803 112.369 137.984 112.1 138.113 111.795C138.254 111.479 138.324 111.145 138.324 110.793V92.793H143.352V110.793ZM165.148 118H147.869V92.793H165.148V97.8379H152.914V102.883H161.193V107.928H152.914V112.955H165.148V118ZM188.844 110.441C188.844 111.484 188.645 112.463 188.246 113.377C187.848 114.291 187.303 115.094 186.611 115.785C185.932 116.465 185.135 117.004 184.221 117.402C183.307 117.801 182.328 118 181.285 118H168.682V92.793H181.285C182.328 92.793 183.307 92.9922 184.221 93.3906C185.135 93.7891 185.932 94.334 186.611 95.0254C187.303 95.7051 187.848 96.502 188.246 97.416C188.645 98.3301 188.844 99.3086 188.844 100.352C188.844 100.82 188.779 101.301 188.65 101.793C188.521 102.285 188.34 102.76 188.105 103.217C187.871 103.674 187.59 104.09 187.262 104.465C186.934 104.84 186.57 105.15 186.172 105.396C186.582 105.619 186.951 105.924 187.279 106.311C187.607 106.686 187.889 107.102 188.123 107.559C188.357 108.016 188.533 108.496 188.65 109C188.779 109.492 188.844 109.973 188.844 110.441ZM173.727 112.955H181.285C181.637 112.955 181.965 112.891 182.27 112.762C182.574 112.633 182.838 112.457 183.061 112.234C183.295 112 183.477 111.73 183.605 111.426C183.734 111.121 183.799 110.793 183.799 110.441C183.799 110.09 183.734 109.762 183.605 109.457C183.477 109.152 183.295 108.889 183.061 108.666C182.838 108.432 182.574 108.25 182.27 108.121C181.965 107.992 181.637 107.928 181.285 107.928H173.727V112.955ZM173.727 102.883H181.285C181.637 102.883 181.965 102.818 182.27 102.689C182.574 102.561 182.838 102.385 183.061 102.162C183.295 101.928 183.477 101.658 183.605 101.354C183.734 101.037 183.799 100.703 183.799 100.352C183.799 100 183.734 99.6719 183.605 99.3672C183.477 99.0625 183.295 98.7988 183.061 98.5762C182.838 98.3418 182.574 98.1602 182.27 98.0312C181.965 97.9023 181.637 97.8379 181.285 97.8379H173.727V102.883Z" fill="#D6D6D6"/>
</g>
<defs>
<clipPath id="clip0_205_2">
<rect width="288" height="313" fill="white"/>
</clipPath>
</defs>
</svg>
